<svg width="153" height="153" viewBox="0 0 153 153" fill="none" xmlns="http://www.w3.org/2000/svg">
<path d="M108.375 51H121.125C128.167 51 133.875 56.7084 133.875 63.75V102C133.875 109.042 128.167 114.75 121.125 114.75H108.375V140.25L82.875 114.75H57.375C53.8542 114.75 50.6667 113.323 48.3594 111.016M48.3594 111.016L70.125 89.25H95.625C102.667 89.25 108.375 83.5416 108.375 76.5V38.25C108.375 31.2084 102.667 25.5 95.625 25.5H31.875C24.8334 25.5 19.125 31.2084 19.125 38.25V76.5C19.125 83.5416 24.8334 89.25 31.875 89.25H44.625V114.75L48.3594 111.016Z" stroke="#000000" stroke-width="7" stroke-linecap="round" stroke-linejoin="round"/>
</svg>
